<?xml version="1.0" encoding="iso-8859-1"?>
<!-- Generator: Adobe Illustrator 19.0.0, SVG Export Plug-In . SVG Version: 6.00 Build 0)  -->
<svg xmlns="http://www.w3.org/2000/svg" xmlns:xlink="http://www.w3.org/1999/xlink" version="1.1" id="Capa_1" x="0px" y="0px" viewBox="0 0 512 512" style="enable-background:new 0 0 512 512;" xml:space="preserve" width="512px" height="512px">
<g>
	<g>
		<path d="M406,408.25c-4.143,0-7.5,3.357-7.5,7.5v22.75H159.667c-4.143,0-7.5,3.357-7.5,7.5s3.357,7.5,7.5,7.5H398.5v21    c0,12.406-10.094,22.5-22.5,22.5H136c-12.406,0-22.5-10.094-22.5-22.5v-21h14.167c4.143,0,7.5-3.357,7.5-7.5s-3.357-7.5-7.5-7.5    H113.5V128c0-4.143-3.357-7.5-7.5-7.5s-7.5,3.357-7.5,7.5v346.5c0,20.678,16.822,37.5,37.5,37.5h240    c20.678,0,37.5-16.822,37.5-37.5v-58.75C413.5,411.607,410.143,408.25,406,408.25z" fill="#FFFFFF"/>
	</g>
</g>
<g>
	<g>
		<path d="M376,0H136c-20.678,0-37.5,16.822-37.5,37.5v58.125c0,4.143,3.357,7.5,7.5,7.5s7.5-3.357,7.5-7.5V73.5h285v310.25    c0,4.143,3.357,7.5,7.5,7.5s7.5-3.357,7.5-7.5V37.5C413.5,16.822,396.678,0,376,0z M398.5,58.5h-285v-21    c0-12.406,10.094-22.5,22.5-22.5h240c12.406,0,22.5,10.094,22.5,22.5V58.5z" fill="#FFFFFF"/>
	</g>
</g>
<g>
	<g>
		<path d="M356.565,177.049C344.926,162.508,328.743,154.5,311,154.5c-27.733,0-46.068,15.301-55,25.164    c-8.932-9.863-27.267-25.164-55-25.164c-17.743,0-33.926,8.008-45.565,22.549c-10.92,13.643-16.935,31.799-16.935,51.124    c0,28.917,14.565,85.294,112.11,137.966c1.688,0.912,3.539,1.368,5.391,1.368c1.85,0,3.7-0.455,5.386-1.366    C358.935,313.467,373.5,257.09,373.5,228.173C373.5,208.848,367.485,190.692,356.565,177.049z M256,351.996    c-66.118-36.119-102.5-80.045-102.5-123.823c0-33.449,20.421-58.673,47.5-58.673c27.543,0,43.533,19.137,47.777,25.003h0.001    c1.673,2.312,4.373,3.691,7.222,3.691s5.549-1.38,7.223-3.691c4.244-5.866,20.234-25.003,47.777-25.003    c27.079,0,47.5,25.224,47.5,58.673C358.5,271.951,322.121,315.875,256,351.996z" fill="#FFFFFF"/>
	</g>
</g>
<g>
	<g>
		<path d="M282,28.5h-52c-4.143,0-7.5,3.357-7.5,7.5s3.357,7.5,7.5,7.5h52c4.143,0,7.5-3.357,7.5-7.5S286.143,28.5,282,28.5z" fill="#FFFFFF"/>
	</g>
</g>
<g>
	<g>
		<path d="M282,468.5h-52c-4.143,0-7.5,3.357-7.5,7.5s3.357,7.5,7.5,7.5h52c4.143,0,7.5-3.357,7.5-7.5S286.143,468.5,282,468.5z" fill="#FFFFFF"/>
	</g>
</g>
<g>
</g>
<g>
</g>
<g>
</g>
<g>
</g>
<g>
</g>
<g>
</g>
<g>
</g>
<g>
</g>
<g>
</g>
<g>
</g>
<g>
</g>
<g>
</g>
<g>
</g>
<g>
</g>
<g>
</g>
</svg>
